Patient4_TMGait_0pt4_02_left_09_EMG.mot
version=1
nRows=13
nColumns=33
inDegrees=no
endheader
time	1LAddLong	2LGlutMax	3LGlutMed	4LIliopsoas	5LSemiMemb	6LBicFemLong	7LRecFem	8LVastMed	9LVastLat	10LGasMed	11LTibAnt	12lTibPost	13LPeroneusLong	14LSol	15LExtDigLong	16LFlexDigLong	17RAddLong	18RGlutMax	19RGlutMed	20RIliopsoas	21RSemiMemb	22RBicFemLong	23RRecFem	24RVastMed	25RVastLat	26RGasMed	27RTibAnt	28RTibPost	29RPeroneusLong	30RSol	31RExtDigLong	32RFlexDigLong
12.97	0.001526	0.11185	-0.17609	0.005493	0.016632	0.063324	0.26489	0.005035	-0.063934	-0.016785	-0.028534	0.008698	0.013733	-0.086212	0.023041	-0.007477	0.066986	-0.14587	0.098877	-0.10956	-0.2449	0.13153	-0.32486	0.015106	0.14862	-0.00885	-0.065308	-0.006409	0.00824	-0.060425	0.000458	-0.010681
12.971	-0.001068	0.044556	-0.13504	-0.003357	0.026398	0.022736	0.27161	0.003204	-0.079193	-0.017395	-0.000305	0.007324	-0.004883	-0.09613	0.004578	-0.002441	0.077515	-0.1857	0.31448	0.00061	-0.31952	0.070343	-0.50232	-0.02533	0.33814	-0.012817	-0.049438	-0.004425	0.040283	-0.068359	-0.000458	-0.011292
12.972	0.001984	0.049744	-0.11261	0.003204	0.035095	0.013275	0.24796	0.007629	-0.076904	-0.007629	-0.070343	0.005188	-0.007629	-0.035553	-0.098114	-0.005951	0.15671	-0.2359	0.11688	0.11276	-0.25604	-0.018768	-0.55313	0.037079	0.37201	-0.012512	-0.001221	-0.002594	-0.13397	-0.058136	0.007629	-0.009003
12.973	-0.002594	0.041199	-0.11002	0.030518	0.033264	0.012207	0.19943	0.00412	-0.088654	0.029755	-0.14023	0.008087	-0.009766	-0.019836	-0.079041	-0.007019	0.22888	-0.32257	0.044708	0.023804	0.19409	-0.12497	-0.35004	-0.20523	0.090637	-0.014343	0.02182	-0.001678	-0.40985	-0.046082	-0.001068	-0.008698
12.974	0.002594	0.056458	-0.19867	0.020294	0.016937	0.013123	0.17548	0.003357	-0.065613	0.023041	-0.089874	0.004425	0.058289	-0.028839	-0.071259	0.006866	0.31204	-0.24994	-0.003967	-0.1033	0.059204	-0.012665	-0.025177	-0.681	-0.20187	-0.010376	0.018463	-0.008545	-0.55237	-0.029755	-0.001831	-0.002289
12.975	-0.005341	0.045624	-0.18265	0.00885	0.027008	0.017242	0.19028	0.006866	-0.05188	0.031281	-0.022888	0.011902	0.057068	-0.007935	0.21652	0.003967	0.22644	-0.30548	0.18555	-0.18738	-0.036774	0.015411	0.000763	-0.89371	-0.25742	0.011597	-0.057373	-0.009766	-0.046387	-0.053253	-0.001831	0.001373
12.976	-0.002289	0.037537	-0.15671	-0.000916	0.024109	0.025787	0.15579	0.002136	-0.02121	0.027771	0.017395	0.011444	0.031128	-0.026855	0.090485	0.005341	0.064697	-0.29404	0.15472	-0.088654	0.079651	0.074768	-0.15884	-0.73379	-0.11902	0.010071	-0.050964	-0.006256	0.68405	-0.051575	-0.00061	-0.007935
12.977	0.002136	0.047913	-0.159	0.000916	0.015869	0.03891	0.15228	0.005646	-0.021973	0.036011	0.001221	0.009155	0.009155	-0.085297	-0.19104	-0.005798	0.033112	-0.21622	-0.1561	0.13321	0.10162	0.10376	-0.25177	-0.17441	-0.017242	-0.008698	0.005493	-0.010071	0.26764	0.034485	-0.005493	-0.007477
12.978	0.002899	0.073547	-0.12512	-0.005951	0.005646	0.035095	0.15701	0.002747	-0.033264	0.047302	0.003052	0.01236	-0.046234	-0.15411	-0.15945	0.003204	0.084229	-0.18372	-0.30548	0.23926	0.14908	-0.097351	-0.26657	-0.008698	-0.006409	-0.001068	-0.001068	0.004883	0.22553	0.023041	0	-0.006866
12.979	-0.001221	0.052948	-0.11475	-0.002594	0.004425	0.029907	0.15518	0.001373	-0.040131	0.045776	0.027771	0.011292	-0.028229	-0.10239	-0.1088	-0.010376	0.14771	-0.1828	-0.60745	0.20401	0.36194	-0.32532	-0.29358	-0.1474	0.006409	0.000305	0.007629	-0.010071	0.3772	-0.037842	0.001526	-0.013733
12.98	-0.005188	0.09079	-0.13412	0.003662	-0.00824	0.040588	0.15091	0.004425	-0.033569	0.039978	0.042419	0.005035	0.02655	-0.06485	0.020142	-0.010986	0.20371	-0.18997	-0.39505	0.019379	0.014343	-0.42893	-0.26382	-0.40909	0.11276	-0.001373	0.059509	-0.003662	0.34622	-0.096588	-0.000458	-0.001831
12.981	-0.000458	0.079498	-0.15793	0.009155	-0.019989	0.030518	0.14755	-0.00412	-0.031738	0.03006	0.033264	0.011597	0.10864	-0.048828	0.045624	-0.003052	0.22095	-0.18677	-0.55344	-0.023651	-0.37262	-0.24338	-0.20248	-0.3717	0.17944	0.001678	0.052185	0.001984	-0.022125	-0.11215	-0.001984	-0.011139
12.982	0.006409	0.088043	-0.17227	-0.000916	-0.028229	-0.039673	0.1535	-0.005035	-0.023193	0.020599	0.00885	0.014954	-0.074463	0.010986	0.09903	-0.003357	0.11841	-0.14542	-0.80765	-0.002594	-0.69443	0.043182	-0.18768	0.41275	0.19562	0.003204	0.017395	-0.001068	-0.55557	-0.041656	-0.001678	-0.003815
